<mxfile host="app.diagrams.net" modified="2024-04-08T16:00:14.310Z" agent="Mozilla/5.0 (Macintosh; Intel Mac OS X 10_15_7) AppleWebKit/605.1.15 (KHTML, like Gecko) Version/16.4 Safari/605.1.15" version="24.2.2" etag="xrlIHJ4DNKDYzbxXBl6m" type="github">
  <diagram name="Page-1" id="6oTcC62TU45nXKiur2dh">
    <mxGraphModel>
      <root>
        <mxCell id="0" />
        <mxCell id="1" parent="0" />
      </root>
    </mxGraphModel>
  </diagram>
</mxfile>
